<?xml version="1.0" standalone="no"?><!DOCTYPE svg PUBLIC "-//W3C//DTD SVG 1.1//EN" "http://www.w3.org/Graphics/SVG/1.1/DTD/svg11.dtd"><svg t="1514960330395" class="icon" style="" viewBox="0 0 1024 1024" version="1.1" xmlns="http://www.w3.org/2000/svg" p-id="6531" xmlns:xlink="http://www.w3.org/1999/xlink" width="200" height="200"><defs><style type="text/css"></style></defs><path fill="#999" d="M896.638077 365.695086C896.638077 163.83959 724.606507 0 512.639037 0c-212.09547 0-383.99904 163.775591-383.99904 365.695086 0 73.791816 22.911943 142.463644 62.399844 199.8715h-0.639999l287.807281 438.142905A38.655903 38.655903 0 0 0 512.639037 1023.99744c15.103962 0 28.15993-8.255979 34.431914-20.287949l287.87128-438.142905h-0.639998c39.423901-57.407856 62.335844-126.079685 62.335844-199.8715z m-383.99904-166.719583c96.639758 0 175.039562 74.623813 175.039562 166.719583 0 92.15977-78.335804 166.783583-175.103562 166.783583-96.639758 0-175.103562-74.687813-175.103562-166.783583 0-92.09577 78.399804-166.719583 175.103562-166.719583z" p-id="6532"></path></svg>