<?xml version="1.0" standalone="no"?><!DOCTYPE svg PUBLIC "-//W3C//DTD SVG 1.1//EN" "http://www.w3.org/Graphics/SVG/1.1/DTD/svg11.dtd"><svg t="1514959363581" class="icon" style="" viewBox="0 0 1024 1024" version="1.1" xmlns="http://www.w3.org/2000/svg" p-id="1454" xmlns:xlink="http://www.w3.org/1999/xlink" width="200" height="200"><defs><style type="text/css"></style></defs><path fill="#666" d="M301.06308667 418.27235755C271.93806851 418.27235755 248.32797834 442.25406934 248.32797834 471.84871759 248.32797834 501.44796362 271.93806851 525.43082486 301.06308667 525.43082486 330.18458398 525.43082486 353.79467499 501.44796362 353.79467499 471.84871759 353.79467499 442.25406934 330.18458398 418.27235755 301.06308667 418.27235755L301.06308667 418.27235755 301.06308667 418.27235755ZM512.00234751 418.27235755C482.87732852 418.27235755 459.26606501 442.25406934 459.26606501 471.84871759 459.26606501 501.44796362 482.88084937 525.43082486 512.00234751 525.43082486 541.12267148 525.43082486 564.73393499 501.44796362 564.73393499 471.84871759 564.73393499 442.25406934 541.12267148 418.27235755 512.00234751 418.27235755L512.00234751 418.27235755 512.00234751 418.27235755ZM722.94043499 418.27235755C693.81541437 418.27235755 670.20532501 442.25406934 670.20532501 471.84871759 670.20532501 501.44796362 693.81541437 525.43082486 722.94043499 525.43082486 752.06192983 525.43082486 775.67202002 501.44796362 775.67202002 471.84871759 775.67202002 442.25406934 752.06192983 418.27235755 722.94043499 418.27235755L722.94043499 418.27235755 722.94043499 418.27235755ZM195.59169582 150.39285703C137.34987454 150.39285703 90.125 198.37467254 90.125 257.55132434L90.125 659.36770151C90.125 718.54895108 138.40497568 773.09547861 197.98944052 773.09547861L358.71456805 773.09547861C386.73049827 802.32573892 490.83420578 906.36309671 490.83420578 906.36309671 502.52375064 918.0591658 521.05914765 917.78919546 532.401552 905.64791641 532.401552 905.64791641 606.21384845 825.62580454 661.52626697 773.09547861L826.01056031 773.09547861C885.59502267 773.09547861 933.875 718.5443533 933.875 659.36770151L933.875 257.55132434C933.875 198.37467254 886.65482046 150.39285703 828.40830499 150.39285703L195.59169582 150.39285703 195.59169582 150.39285703ZM826.01056031 719.99845344L664.25497754 719.99845344C644.65990552 719.99845344 627.04593542 739.73281423 627.04593542 739.73281423L533.10310706 836.55084186C521.4494743 848.56114768 502.44584796 848.18866748 491.44382092 836.55084186L399.91515493 739.73281423C399.91515493 739.73281423 378.28499335 719.99845344 359.74502246 719.99845344L197.98944052 719.99845344C168.19544727 719.99845344 142.8612825 688.9531542 142.8612825 659.36770151L142.8612825 257.55132434C142.8612825 227.95667608 166.47137186 203.96921707 195.59169582 203.96921707L828.40830499 203.96921707C857.52862485 203.96921707 881.1434158 227.95667608 881.1434158 257.55132434L881.1434158 659.36770151C881.1434158 688.9531542 855.80455438 719.99845344 826.01056031 719.99845344L826.01056031 719.99845344Z" p-id="1455"></path></svg>