<?xml version="1.0" standalone="no"?><!DOCTYPE svg PUBLIC "-//W3C//DTD SVG 1.1//EN" "http://www.w3.org/Graphics/SVG/1.1/DTD/svg11.dtd"><svg t="1515065399361" class="icon" style="" viewBox="0 0 1024 1024" version="1.1" xmlns="http://www.w3.org/2000/svg" p-id="2028" xmlns:xlink="http://www.w3.org/1999/xlink" width="200" height="200"><defs><style type="text/css"></style></defs><path d="M76.16 512C76.16 271.264 271.296 76.16 512 76.16c240.704 0 435.84 195.104 435.84 435.84 0 240.704-195.136 435.84-435.84 435.84-95.584 0-186.432-30.816-261.28-86.944a22.08 22.08 0 1 0-26.496 35.296A477.92 477.92 0 0 0 512 992c265.088 0 480-214.912 480-480 0-265.12-214.912-480-480-480C246.912 32 32 246.88 32 512c0 38.752 4.608 76.928 13.632 113.984a22.08 22.08 0 0 0 42.88-10.432A437.184 437.184 0 0 1 76.16 512z" p-id="2029" fill="#ffffff"></path><path d="M480 720a48 48 0 1 0 96 0 48 48 0 0 0-96 0zM528 256c26.4 0 48 17.632 48 39.2v273.6c0 21.568-21.6 39.2-48 39.2s-48-17.632-48-39.2v-273.6C480 273.632 501.6 256 528 256z" p-id="2030" fill="#ffffff"></path></svg>