<?xml version="1.0" standalone="no"?><!DOCTYPE svg PUBLIC "-//W3C//DTD SVG 1.1//EN" "http://www.w3.org/Graphics/SVG/1.1/DTD/svg11.dtd"><svg t="1514892574200" class="icon" style="" viewBox="0 0 1024 1024" version="1.1" xmlns="http://www.w3.org/2000/svg" p-id="1221" xmlns:xlink="http://www.w3.org/1999/xlink" width="200" height="200"><defs><style type="text/css"></style></defs><path d="M1009.1026963 346.29910124c0 30.37849854-24.85513482 55.23363335-55.23363336 55.23363335H70.13093706c-30.37849854 0-55.23363335-24.85513482-55.23363336-55.23363335V291.06546788c0-30.37849854 24.85513482-55.23363335 55.23363336-55.23363206h883.73812588c30.37849854 0 55.23363335 24.85513482 55.23363336 55.23363206v55.23363336z" fill="#FF5252" p-id="1222"></path><path d="M743.98125827 14.8973037c-77.32708566 0-160.17753504 107.70558419-201.60275973 173.98594371-11.04672615-5.52336372-19.33177108-8.28504494-30.37849854-8.28504494s-19.33177108 2.76168122-27.61681602 8.28504494C440.19627677 122.6028879 357.34582738 14.8973037 280.01874173 14.8973037c-110.46726541 0-140.84576395 52.47195085-135.32240023 135.32240024C150.21970394 227.54679088 354.58414617 235.83183582 456.76636665 235.83183582v165.70089877h110.4672667V235.83183582c102.18222047 0 306.54666272-11.04672615 312.07002515-88.3738131 5.52336372-80.08876817-24.85513482-132.56071902-135.32240023-132.56071902z" fill="#FFC400" p-id="1223"></path><path d="M70.13093706 512v386.63543088c0 60.75699579 49.71026963 110.46726541 110.46726541 110.46726542h276.16816418V512H70.13093706zM567.23363335 1009.1026963h276.16816418c60.75699579 0 110.46726541-49.71026963 110.46726541-110.46726542V512H567.23363335v497.1026963z" fill="#FF5252" p-id="1224"></path><path d="M456.76636665 512h110.4672667v497.1026963h-110.4672667z" fill="#FFC400" p-id="1225"></path><path d="M567.23363335 401.53273459h386.63542959v110.46726541H567.23363335zM70.13093706 401.53273459h386.63542959v110.46726541H70.13093706z" fill="#BC373B" p-id="1226"></path><path d="M456.76636665 401.53273459h110.4672667v110.46726541h-110.4672667z" fill="#C19202" p-id="1227"></path><path d="M567.23363335 230.3084721c0-5.52336372 0-8.28504494-2.7616825-13.80840867 85.6121306-30.37849854 251.31302935-82.85044939 273.40648295-57.99531457 19.33177108 22.0934536-69.04204071 49.71026963-270.64480045 71.80372324zM459.52804915 216.50006343c0 5.52336372-2.76168122 8.28504494-2.7616825 13.80840867C255.16360691 208.2150185 166.7897938 180.59820247 186.1215662 158.50474886c22.0934536-24.85513482 187.79435236 27.61681602 273.40648295 57.99531457z" fill="#EF6C00" p-id="1228"></path></svg>