<?xml version="1.0" standalone="no"?><!DOCTYPE svg PUBLIC "-//W3C//DTD SVG 1.1//EN" "http://www.w3.org/Graphics/SVG/1.1/DTD/svg11.dtd"><svg class="icon" width="200px" height="200.00px" viewBox="0 0 1024 1024" version="1.1" xmlns="http://www.w3.org/2000/svg"><path fill="#666" d="M430.09560547 739.93789062v109.82460938c0 40.94824219-33.50039063 72.59589844-74.45126953 72.59589844h-74.45126953c-39.09023438 0-70.73701172-31.64326172-72.59589844-68.87460938l-1.85888672-245.71054687c0-39.09023438-5.57929687-46.53632813-42.81240234-48.39345703h-67.01308594c1.85888672 0-16.75634766 1.85888672-27.92021485-9.30498047-9.30498047-9.30498047-13.02978516-33.50039063-9.30498046-18.60996094-1.85888672-7.44960937 0-16.75634766 1.85888671-22.33652344 3.72216797-7.44960937 11.17089844-14.89042969 7.44960938-11.17089843l405.79101563-400.20644532c7.44960937-7.44960937 26.06308594-29.78173828 53.97802734-3.72216797l405.79101562 400.20644532c14.89042969 14.89042969 14.89042969 37.23310547 0 52.11914062s-37.23310547 14.89042969-52.11914062 0l-379.72792969-374.14775391-318.3055664 314.57900391h22.33652343c40.94824219 0 74.45126953 33.50039063 74.45126953 72.59589844v258.73681641c1.85888672 24.19892578 11.17089844 29.78173828 37.23310547 31.64326171 31.64326172-1.85888672 35.37158203-13.02978516 37.23310547-52.11914062v-93.06914063c0-39.09023438 33.50039063-72.59589844 74.45126953-72.59589843h148.91660157c40.94824219 0 74.45126953 33.50039063 74.45126953 72.59589843v72.59589844c0 57.70634766 0 68.87460938 37.23310547 72.59589844 39.09023438-3.72216797 35.37158203-22.33652344 37.23310546-46.53632813v-243.84638672c0-20.47412109 16.75634766-37.23310547 37.23310547-37.23310546s37.23310547 16.75634766 37.23310547 37.23310546v292.24248047c0 40.94824219-33.50039063 72.59589844-74.45126953 72.59589844h-74.45126953c-39.09023438 0-72.59589844-31.64326172-72.59589844-70.73701172v-107.96748047c-1.85888672-31.64326172-11.17089844-39.09023438-44.67392578-40.94824218h-61.42587891c-35.37158203 0-42.81240234 7.44960937-44.67392578 35.37158203zM206.72509766 605.90996094z" /></svg>