<?xml version="1.0" standalone="no"?><!DOCTYPE svg PUBLIC "-//W3C//DTD SVG 1.1//EN" "http://www.w3.org/Graphics/SVG/1.1/DTD/svg11.dtd"><svg t="1514958931991" class="icon" style="" viewBox="0 0 1024 1024" version="1.1" xmlns="http://www.w3.org/2000/svg" p-id="1573" xmlns:xlink="http://www.w3.org/1999/xlink" width="200" height="200"><defs><style type="text/css"></style></defs><path d="M739.488273 191.018739c24.059057 52.988075 28.492902 142.028393-19.988643 185.203862C637.146421 64.109029 433.189579 0 433.189579 0c24.059057 161.21749-87.73197 337.044861-194.943782 468.824532-3.997729-64.109029-7.995457-109.028961-41.867121-170.085179-7.268597 116.297558-97.035775 211.879614-121.094833 328.540602-32.49063 158.455423 24.495173 274.244179 242.189665 396.720045-68.542873-142.028393-32.054514-223.50937 20.497445-300.0477a481.035775 481.035775 0 0 0 72.685974-167.17774s44.919932 58.730267 27.111868 150.459966c79.954571-89.040318 94.491766-230.196479 82.789324-284.492902 180.770017 125.964793 257.817149 398.900625 153.585463 601.040318 553.358319-312.33163 137.521863-779.775128 65.344691-832.763203z" fill="#d81e06" p-id="1574"></path></svg>