<?xml version="1.0" standalone="no"?><!DOCTYPE svg PUBLIC "-//W3C//DTD SVG 1.1//EN" "http://www.w3.org/Graphics/SVG/1.1/DTD/svg11.dtd"><svg t="1514959997197" class="icon" style="" viewBox="0 0 2441 1024" version="1.1" xmlns="http://www.w3.org/2000/svg" p-id="3596" xmlns:xlink="http://www.w3.org/1999/xlink" width="476.7578125" height="200"><defs><style type="text/css"></style></defs><path d="M1936.620308 52.381538H233.156923C136.270769 52.381538 57.737846 128.787692 57.737846 222.916923v596.519385c0 94.208 78.532923 170.456615 175.340308 170.456615h1703.542154c96.886154 0 175.340308-76.248615 175.340307-170.456615v-111.852308l259.859693-161.634462-259.859693-178.806153V222.759385c0-94.050462-78.454154-170.456615-175.340307-170.456616zM716.012308 782.572308h-115.79077L375.492923 437.641846a403.377231 403.377231 0 0 1-25.363692-43.323077h-1.732923c2.048 18.274462 3.150769 46.631385 3.150769 84.992v303.261539H244.184615v-533.267693h123.352616l216.457846 335.320616c14.336 22.291692 23.158154 36.391385 26.387692 42.377846h1.654154c-2.284308-12.839385-3.387077-37.415385-3.387077-73.728V249.383385h107.126154v533.188923z m437.405538 0h-314.131692v-533.267693h301.764923v92.947693H952.32v125.715692h175.419077v92.553846h-175.419077v129.102769h201.097846v92.947693z m632.280616 0h-125.715693L1569.476923 434.806154a290.028308 290.028308 0 0 1-8.585846-58.840616H1559.630769c-2.363077 23.867077-5.513846 43.480615-9.609846 58.840616l-92.475077 347.687384h-130.520615l-141.469539-533.267692h124.061539l78.769231 361.550769c3.387077 15.753846 5.828923 35.761231 7.08923 59.864616h2.441846c1.181538-18.904615 4.726154-39.384615 10.633847-61.676308l98.697846-359.660308h120.201846l89.718154 364.150154c3.623385 14.493538 6.537846 33.319385 8.585846 56.477539h1.654154c0.945231-20.007385 3.544615-39.463385 7.876923-58.525539l77.115077-362.102154h114.766769l-141.469538 533.188923z" fill="#FF5D26" p-id="3597"></path></svg>