<?xml version="1.0" standalone="no"?><!DOCTYPE svg PUBLIC "-//W3C//DTD SVG 1.1//EN" "http://www.w3.org/Graphics/SVG/1.1/DTD/svg11.dtd"><svg t="1515637414621" class="icon" style="" viewBox="0 0 1024 1024" version="1.1" xmlns="http://www.w3.org/2000/svg" p-id="2789" xmlns:xlink="http://www.w3.org/1999/xlink" width="200" height="200"><defs><style type="text/css"></style></defs><path d="M454.66112 452.52096c-6.08768 0-11.008 4.79744-11.008 10.73152a10.87488 10.87488 0 0 0 10.86976 10.752l0.13824-0.00512h47.67744v46.51008a10.86464 10.86464 0 0 0 10.86976 10.72128h0.13824c6.08768 0 11.008-4.80256 11.008-10.73152v-46.47936h47.6928c6.0672 0 11.008-4.80256 11.008-10.752 0-5.92384-4.94592-10.7264-11.008-10.7264h-0.0256l-47.64672 0.04608V423.9872h47.64672c6.08768 0 11.01312-4.80768 11.01312-10.75712 0-5.92384-4.92544-10.7264-11.01312-10.7264h-39.07072l41.27232-40.38656c2.56-2.4832 1.1008-7.96672-3.3024-12.25216-4.33664-4.23936-9.9584-5.71392-12.52864-3.23072l-45.07648 43.92448-45.04576-43.92448c-2.55488-2.52928-8.17664-1.0752-12.57984 3.23072-4.35712 4.31104-5.85728 9.76896-3.3024 12.27264l41.344 40.2944h-39.05024c-6.08768 0-11.008 4.80256-11.008 10.76224a10.86464 10.86464 0 0 0 10.86464 10.7264h47.7696v28.60544h-47.64672z" fill="#ffcc00" p-id="2790"></path><path d="M513.2288 5.51424c-280.1664 0-507.22816 227.09248-507.22816 507.23328 0 280.11008 227.06688 507.23328 507.22816 507.23328 280.1152 0 507.22816-227.11808 507.22816-507.23328 0-280.1408-227.11296-507.23328-507.22816-507.23328zM350.83776 316.0832c0-23.63392 18.03776-23.65952 36.07552-23.61344 47.01696 0.09728 85.71392-11.42784 113.61792-35.51232 13.93664-13.77792 20.6336-4.10112 25.53344 0.04608 28.416 26.42432 66.50368 35.2768 113.44896 35.42016 16.83968 0.04096 36.10112 0 36.10112 23.60832v165.5296c0 55.1424-116.24448 143.06304-162.38592 143.06304-46.15168 0-162.39104-71.4496-162.39104-143.06304v-165.4784z m374.9632 360.58112c-19.584 14.52032-108.85632 81.09056-143.49824 85.59104-34.65216 4.49536-134.98368-5.32992-153.15456-1.97632-18.15552 3.36896-39.98208 14.56128-39.98208 14.56128l-11.8784 0.82944-89.05216-70.4768-2.28864-7.8848s61.056-49.77152 102.87616-52.27008c41.78432-2.5088 166.08256 4.98176 193.51552 5.8112 27.42784 0.8704 30.94528 22.25664 6.6048 24.76032-27.03872 2.74944-107.99104 6.65088-114.68288 8.28416-6.68672 1.63328-23.16288 16.89088 19.09248 20.40832 37.33504 3.12832 89.84064 6.56384 109.2352 4.36736 19.58912-2.19648 74.14784-43.78624 92.26752-53.48864 11.73504-6.28224 35.74784-11.4176 45.30688 1.54624 1.9712 2.71872-4.8384 12.8512-14.3616 19.93728z" fill="#ffcc00" p-id="2791"></path></svg>