<?xml version="1.0" standalone="no"?><!DOCTYPE svg PUBLIC "-//W3C//DTD SVG 1.1//EN" "http://www.w3.org/Graphics/SVG/1.1/DTD/svg11.dtd"><svg t="1518098525946" class="icon" style="" viewBox="0 0 1024 1024" version="1.1" xmlns="http://www.w3.org/2000/svg" p-id="3146" xmlns:xlink="http://www.w3.org/1999/xlink" width="200" height="200"><defs><style type="text/css"></style></defs><path d="M201.274096 209.080899 267.600711 209.080899 267.600711 275.407514 201.274096 275.407514 201.274096 209.080899Z" p-id="3147" fill="#ffffff"></path><path d="M386.990868 89.692788 81.885985 89.692788l0 305.105906 119.388111 0 0 53.061496 66.326615 0 0-53.061496 119.389134 0 0-66.328661 53.061496 0 0-53.06252-53.061496 0L386.989845 89.692788 386.990868 89.692788 386.990868 89.692788zM320.66323 328.470033 148.2126 328.470033 148.2126 156.019403l172.45063 0L320.66323 328.470033 320.66323 328.470033z" p-id="3148" fill="#ffffff"></path><path d="M201.274096 752.963027 267.600711 752.963027 267.600711 819.290665 201.274096 819.290665 201.274096 752.963027Z" p-id="3149" fill="#ffffff"></path><path d="M745.156224 209.080899 811.483862 209.080899 811.483862 275.407514 745.156224 275.407514 745.156224 209.080899Z" p-id="3150" fill="#ffffff"></path><path d="M506.378979 508.837984 506.378979 580.51342 572.706617 580.51342 572.706617 514.185782 625.76709 514.185782 625.76709 447.859167 572.706617 447.859167 572.706617 394.798694 506.378979 394.798694 506.378979 448.195835 506.378979 508.837984Z" p-id="3151" fill="#ffffff"></path><path d="M506.378979 751.404532 506.378979 819.291688 572.706617 819.291688 572.706617 751.404532 572.706617 699.901531 625.76709 699.901531 625.76709 633.573893 570.660005 633.573893 506.378979 633.573893 506.378979 690.762383 506.378979 751.404532Z" p-id="3152" fill="#ffffff"></path><path d="M572.706617 819.291688 625.76709 819.291688 625.76709 872.352161 572.706617 872.352161 572.706617 819.291688Z" p-id="3153" fill="#ffffff"></path><path d="M440.052364 872.352161 440.052364 938.679799 510.017856 938.679799 572.706617 938.679799 572.706617 872.352161 510.017856 872.352161 440.052364 872.352161Z" p-id="3154" fill="#ffffff"></path><path d="M692.094728 699.901531 625.76709 699.901531 625.76709 751.404532 625.76709 819.291688 691.942255 819.291688 745.156224 819.291688 745.156224 752.963027 692.094728 752.963027 692.094728 699.901531Z" p-id="3155" fill="#ffffff"></path><path d="M745.156224 938.679799 813.227576 938.679799 873.868701 938.679799 930.872996 938.679799 930.872996 872.352161 873.868701 872.352161 811.484885 872.352161 811.484885 819.291688 745.156224 819.291688 745.156224 872.688829 745.156224 938.679799Z" p-id="3156" fill="#ffffff"></path><path d="M930.872996 514.185782 930.872996 447.859167 873.868701 447.859167 811.484885 447.859167 811.484885 514.185782 873.868701 514.185782 930.872996 514.185782Z" p-id="3157" fill="#ffffff"></path><path d="M864.545358 752.963027 930.872996 752.963027 930.872996 819.290665 864.545358 819.290665 864.545358 752.963027Z" p-id="3158" fill="#ffffff"></path><path d="M440.052364 328.470033 506.378979 328.470033 506.378979 394.796648 440.052364 394.796648 440.052364 328.470033Z" p-id="3159" fill="#ffffff"></path><path d="M745.156224 447.859167l0-53.061496 185.715749 0L930.871973 89.692788 625.76709 89.692788l0 66.326615-55.107085 0-64.281025 0 0 53.061496 64.281025 0 55.108109 0 0 66.326615-53.06252 0 0 53.06252 53.06252 0 0 66.326615 66.325591 0 0 53.061496 53.06252 0L745.156224 447.859167 745.156224 447.859167zM692.094728 156.019403 864.544335 156.019403l0 172.45063L692.094728 328.470033 692.094728 156.019403 692.094728 156.019403z" p-id="3160" fill="#ffffff"></path><path d="M692.094728 580.51342 745.156224 580.51342 745.156224 633.573893 692.094728 633.573893 692.094728 580.51342Z" p-id="3161" fill="#ffffff"></path><path d="M811.484885 699.901531 745.156224 699.901531 745.156224 752.963027 813.227576 752.963027 864.545358 752.963027 864.545358 690.762383 864.545358 633.573893 930.872996 633.573893 930.872996 580.51342 873.868701 580.51342 811.484885 580.51342 811.484885 630.121258 811.484885 699.901531Z" p-id="3162" fill="#ffffff"></path><path d="M440.052364 209.080899 506.378979 209.080899 506.378979 275.407514 440.052364 275.407514 440.052364 209.080899Z" p-id="3163" fill="#ffffff"></path><path d="M267.600711 514.185782 320.66323 514.185782 320.66323 580.51342 267.600711 580.51342 267.600711 514.185782Z" p-id="3164" fill="#ffffff"></path><path d="M440.052364 447.859167 388.733559 447.859167 320.66323 447.859167 320.66323 514.185782 386.990868 514.185782 386.990868 580.51342 440.052364 580.51342 440.052364 508.837984 440.052364 447.859167Z" p-id="3165" fill="#ffffff"></path><path d="M386.990868 819.291688 386.990868 699.901531l53.061496 0 0-66.326615-51.318806 0-187.459462 0 0-64.094784 0-55.293327-55.108109 0L81.885985 514.186805l0 66.326615 66.327638 0 0 53.061496L81.885985 633.574916l0 305.105906 305.105906 0 0-66.327638 53.061496 0 0-53.061496L386.990868 819.291688 386.990868 819.291688zM320.66323 872.352161 148.2126 872.352161 148.2126 699.901531l172.45063 0L320.66323 872.352161 320.66323 872.352161z" p-id="3166" fill="#ffffff"></path><path d="M440.052364 580.51342 506.378979 580.51342 506.378979 633.573893 440.052364 633.573893 440.052364 580.51342Z" p-id="3167" fill="#ffffff"></path><path d="M625.76709 514.185782 692.094728 514.185782 692.094728 580.51342 625.768113 580.51342 625.768113 514.185782 625.76709 514.185782Z" p-id="3168" fill="#ffffff"></path><path d="M745.156224 514.185782 811.483862 514.185782 811.483862 580.51342 745.156224 580.51342 745.156224 514.185782Z" p-id="3169" fill="#ffffff"></path></svg>