<?xml version="1.0" standalone="no"?><!DOCTYPE svg PUBLIC "-//W3C//DTD SVG 1.1//EN" "http://www.w3.org/Graphics/SVG/1.1/DTD/svg11.dtd"><svg t="1514965059918" class="icon" style="" viewBox="0 0 1024 1024" version="1.1" xmlns="http://www.w3.org/2000/svg" p-id="12752" xmlns:xlink="http://www.w3.org/1999/xlink" width="200" height="200"><defs><style type="text/css"></style></defs><path fill="#fff000" d="M512.000407-0.000359c-282.717778 0-512.00004 229.282063-512.00004 512.00004s229.282063 512.00004 512.00004 512.00004 512.00004-229.282063 512.00004-512.00004S794.718385-0.000359 512.000407-0.000359L512.000407-0.000359 512.000407-0.000359zM508.70808 870.280824c-41.667931 0-75.570556-33.190278-75.570556-74.035627 0-40.839557 33.781603-74.034429 75.570556-74.034429 41.660942 0 75.562168 33.195071 75.562168 74.034429C584.270248 837.090546 550.488445 870.280824 508.70808 870.280824L508.70808 870.280824 508.70808 870.280824zM711.620769 451.38519c-14.826856 23.304509-46.259336 54.964652-94.512322 95.102448-24.954268 20.713744-40.487479 37.426209-46.49299 50.139793-5.999521 12.591564-8.827336 35.194512-8.241802 67.799057l-107.57439 0c-0.235851-15.420578-0.470504-24.839438-0.470504-28.253984 0-34.83764 5.764668-63.436314 17.299197-85.918441 11.533131-22.481927 34.602988-47.787075 69.092144-75.799217 34.487958-28.131765 55.200503-46.492791 61.913368-55.200503 10.356273-13.769621 15.648041-28.954348 15.648041-45.436953 0-22.949035-9.291848-42.603147-27.65527-59.079762-18.361026-16.361585-43.315293-24.603387-74.504933-24.603387-30.132404 0-55.322523 8.592683-75.564564 25.661821-20.245437 17.062148-37.665455 54.73-41.786356 78.034509-3.88505 22.011423-109.931701 31.310461-108.638615-13.299117s24.483764-92.983385 64.264888-128.056876c39.787115-35.074689 92.044774-52.615529 156.660343-52.615529 68.036306 0 122.057355 17.775492 162.311379 53.316092 40.252826 35.545193 60.264808 76.861245 60.264808 124.056796C733.747022 403.361066 726.333794 428.079482 711.620769 451.38519L711.620769 451.38519 711.620769 451.38519z" p-id="12753"></path></svg>