<?xml version="1.0" standalone="no"?><!DOCTYPE svg PUBLIC "-//W3C//DTD SVG 1.1//EN" "http://www.w3.org/Graphics/SVG/1.1/DTD/svg11.dtd"><svg t="1515467805048" class="icon" style="" viewBox="0 0 1041 1024" version="1.1" xmlns="http://www.w3.org/2000/svg" p-id="9547" xmlns:xlink="http://www.w3.org/1999/xlink" width="203.3203125" height="200"><defs><style type="text/css"></style></defs><path d="M42.139152 313.896081s2.492768-0.262465 3.80509 1.312323c1.312323 1.706667 3.01899 24.806141 9.05697 31.105293 6.03798 6.300444 30.580364 2.756525 30.580364 11.026101 0 6.562909-22.706424 7.34901-30.448485 13.649455-7.743354 6.299152-3.281455 33.074424-12.731475 32.023272-7.34901-0.787394-2.231596-22.048323-11.287273-30.580363-9.055677-8.530747-31.105293-6.824081-31.105292-14.568728 0-7.743354 22.574545-3.01899 30.319191-11.812202 7.611475-8.662626 4.328727-32.155152 11.81091-32.155151z" fill="#FFBA5A" p-id="9548"></path><path d="M869.002343 127.260444s1.706667-0.131879 2.62594 0.91798c0.91798 1.051152 2.099717 16.668444 6.169858 20.999758 4.068848 4.331313 20.605414 1.837253 20.605415 7.480889 0 4.463192-15.356121 4.988121-20.605415 9.187555-5.250586 4.33002-2.231596 22.312081-8.662626 21.655273-4.986828-0.524929-1.442909-14.831192-7.612768-20.605414-6.168566-5.774222-20.999758-4.593778-20.999757-9.843071 0-5.250586 15.224242-2.10101 20.474828-8.007111 5.249293-5.904808 3.017697-21.785859 8.004525-21.785859z" fill="#E94151" p-id="9549"></path><path d="M997.624242 413.513697s2.500525-0.262465 3.944728 1.442909c1.433859 1.706667 3.017697 25.200485 9.182384 31.631515 6.164687 6.43103 30.974707 2.755232 30.974707 11.155394 0 6.693495-23.096889 7.480889-30.974707 13.911919-7.879111 6.43103-3.417212 33.599354-12.997819 32.549495-7.479596-0.787394-2.231596-22.312081-11.413979-30.973414-9.19402-8.662626-31.632808-6.957253-31.632809-14.831192 0-7.875232 22.967596-3.01899 30.716122-12.074666 7.998061-9.05697 4.721778-32.81196 12.201373-32.81196z" fill="#FF0000" p-id="9550"></path><path d="M170.237414 127.260444z m-25.987879 0c0 14.306263 11.680323 25.986586 25.986586 25.986586s25.986586-11.680323 25.986586-25.986586-11.680323-25.986586-25.986586-25.986585c-14.436848 0-25.986586 11.680323-25.986586 25.986585z m725.147152 231.259798z m-25.593535 0c0 14.174384 11.549737 25.592242 25.593535 25.592243 14.174384 0 25.724121-11.549737 25.724121-25.592243 0-14.174384-11.549737-25.725414-25.724121-25.725414-14.174384 0.131879-25.593535 11.55103-25.593535 25.725414z" fill="#FFEB00" p-id="9551"></path><path d="M157.505939 343.033535c0 98.830222 147.392646 178.89099 329.170748 178.89099 181.779394 0 329.170747-80.060768 329.170747-178.89099s-147.259475-178.760404-329.038868-178.760404c-181.911273-0.001293-329.302626 80.060768-329.302627 178.760404z" fill="#DB1717" p-id="9552"></path><path d="M666.749414 373.744485z m-119.435636 0c0 66.01697 53.549253 119.435636 119.435636 119.435636 66.01697 0 119.435636-53.549253 119.435637-119.435636s-53.550545-119.435636-119.435637-119.435637c-66.018263 0-119.435636 53.418667-119.435636 119.435637z" fill="#F4AC51" p-id="9553"></path><path d="M666.749414 373.744485z m-100.010667 0c0 35.700364 19.030626 68.774788 50.005334 86.623677a100.085657 100.085657 0 0 0 100.011959 0c30.974707-17.848889 50.005333-50.923313 50.005334-86.623677 0-35.700364-19.030626-68.774788-50.005334-86.623677a100.085657 100.085657 0 0 0-100.011959 0c-30.974707 17.850182-50.005333 50.924606-50.005334 86.623677z" fill="#F4E376" p-id="9554"></path><path d="M706.517333 386.870303h-29.792969v-20.737293h29.792969c5.513051 0 9.844364-4.463192 9.844364-9.844364 0-5.511758-4.463192-9.843071-9.844364-9.84307H689.455838l10.894223-18.768162c2.624646-4.724364 0.91798-10.631758-3.674505-13.256404-4.593778-2.624646-10.631758-1.181737-13.38699 3.413333l-16.537859 28.218182-16.275394-28.35006c-2.755232-4.593778-8.793212-6.168566-13.38699-3.412041-4.593778 2.624646-6.300444 8.530747-3.675798 13.255111l10.762344 18.768162h-17.062788c-5.513051 0-9.844364 4.463192-9.844364 9.844364 0 5.511758 4.463192 9.843071 9.844364 9.84307h29.79297v20.737293h-29.79297c-5.513051 0-9.844364 4.461899-9.844364 9.843071 0 5.513051 4.463192 9.844364 9.844364 9.844364h29.79297v18.111353c0 5.513051 4.463192 9.843071 9.844363 9.843071 5.511758 0 9.843071-4.461899 9.843071-9.843071v-18.111353h29.794262c3.543919 0 6.824081-1.837253 8.530748-4.988122a10.101657 10.101657 0 0 0 0-9.84307c-1.706667-2.756525-4.856242-4.724364-8.400162-4.724364M306.735838 373.744485z m-119.436929 0c0 66.01697 53.549253 119.435636 119.435636 119.435636 66.01697 0 119.435636-53.549253 119.435637-119.435636s-53.550545-119.435636-119.435637-119.435637c-65.886384 0-119.435636 53.418667-119.435636 119.435637z" fill="#F4AC51" p-id="9555"></path><path d="M306.735838 373.744485z m-100.011959 0c0 35.700364 19.030626 68.774788 50.005333 86.623677a100.085657 100.085657 0 0 0 100.01196 0c30.974707-17.848889 50.006626-50.923313 50.006626-86.623677 0-55.255919-44.75604-100.01196-100.01196-100.01196-55.255919 0.001293-100.01196 44.75604-100.011959 100.01196z" fill="#F4E376" p-id="9556"></path><path d="M346.503758 386.870303h-29.794263v-20.737293h29.794263c5.511758 0 9.843071-4.463192 9.84307-9.844364 0-5.511758-4.463192-9.843071-9.84307-9.84307h-17.062788l10.894222-18.768162c2.625939-4.724364 0.91798-10.631758-3.675798-13.256404-4.593778-2.624646-10.630465-1.181737-13.38699 3.413333l-16.275394 28.350061-16.274101-28.350061c-2.755232-4.595071-8.793212-6.168566-13.38699-3.413333-4.595071 2.625939-6.300444 8.53204-3.674505 13.256404l10.892929 18.768162h-17.061495c-5.511758 0-9.843071 4.463192-9.84307 9.84307 0 5.513051 4.461899 9.844364 9.84307 9.844364h29.794263v20.737293h-29.794263c-5.511758 0-9.843071 4.461899-9.84307 9.843071 0 5.513051 4.461899 9.843071 9.84307 9.84307h29.794263v18.112647c0 5.511758 4.461899 9.843071 9.843071 9.843071 5.513051 0 9.844364-4.461899 9.844363-9.843071v-18.112647h29.530506c3.543919 0 6.824081-1.83596 8.530747-4.986828a10.104242 10.104242 0 0 0 0-9.844363c-1.70796-2.887111-4.988121-4.854949-8.53204-4.85495z" fill="#F4AC51" p-id="9557"></path><path d="M316.841374 323.346101c0 93.842101 76.123798 169.835313 169.965899 169.835313s169.967192-75.993212 169.967192-169.835313-76.125091-169.83402-169.967192-169.83402-169.965899 75.990626-169.965899 169.83402z" fill="#FFBA5A" p-id="9558"></path><path d="M486.807273 323.346101z m-142.272647 0c0 50.792727 27.168323 97.780364 71.13697 123.111434 43.967354 25.461657 98.172121 25.461657 142.272646 0 43.967354-25.461657 71.135677-72.318707 71.135677-123.111434 0-78.48598-63.654788-142.272646-142.272646-142.272646s-142.272646 63.654788-142.272647 142.272646z" fill="#FFF48D" p-id="9559"></path><path d="M543.244929 342.114263h-42.393858v-29.530505h42.393858c7.743354 0 14.043798-6.299152 14.043798-14.043798 0-7.743354-6.299152-14.043798-14.043798-14.043798h-24.281212l15.356121-26.643394a14.059313 14.059313 0 0 0-5.381171-18.768162c-6.562909-3.806384-14.963071-1.706667-18.900041 4.724364l-23.231353 40.292848-23.231354-40.292848c-2.492768-4.331313-7.087838-7.087838-12.205252-7.087839-4.986828 0-9.711192 2.624646-12.205253 7.087839a14.114909 14.114909 0 0 0 0 14.043798l15.356121 26.643394h-24.281212c-7.743354 0-14.043798 6.299152-14.043798 14.043798 0 7.743354 6.299152 14.043798 14.043798 14.043798h42.392566v29.530505h-42.392566c-7.743354 0-14.043798 6.300444-14.043798 14.043798s6.299152 14.043798 14.043798 14.043798h42.392566v25.724121c0 7.743354 6.299152 14.043798 14.043798 14.043798s14.043798-6.300444 14.043798-14.043798v-25.724121h42.392566c4.986828 0 9.711192-2.625939 12.205252-7.087839a14.114909 14.114909 0 0 0 0-14.043798c-2.362182-4.331313-7.086545-6.95596-12.073374-6.955959z" fill="#FFBA5A" p-id="9560"></path><path d="M487.59596 407.607596c-134.004364 0-253.046949-29.794263-329.170748-75.993212v585.761616c0 36.880808 29.924848 66.805657 66.805657 66.805657h524.730182c36.879515 0 66.805657-29.924848 66.805656-66.805657V331.482505c-76.123798 46.330828-195.166384 76.125091-329.170747 76.125091z" fill="#FF4545" p-id="9561"></path><path d="M449.664 784.289616h-83.211636v-37.143273h83.211636v-25.856h-83.211636v-37.143272h67.330585L333.77099 524.549172h90.561939l32.81196 72.448c16.407273 35.830949 20.212364 45.28097 30.581656 68.11798h2.624647c10.762343-22.83701 15.488-34.124283 30.580364-68.11798l31.892686-72.448h88.855273l-100.011959 159.597899h67.330585v37.143272h-82.422949v25.856h82.422949v37.143273h-82.422949v62.999273h-76.780606v-62.999273h-0.130586z" fill="#FFFFFF" p-id="9562"></path></svg>