<?xml version="1.0" standalone="no"?><!DOCTYPE svg PUBLIC "-//W3C//DTD SVG 1.1//EN" "http://www.w3.org/Graphics/SVG/1.1/DTD/svg11.dtd"><svg class="icon" width="200px" height="200.00px" viewBox="0 0 1024 1024" version="1.1" xmlns="http://www.w3.org/2000/svg"><path fill="#666" d="M897.92 535.04c-1.92-15.36-15.36-24.96-30.72-24.96-17.28 0-30.72 13.44-30.72 30.72v216.96c0 15.36-5.76 28.8-15.36 38.4s-24.96 17.28-38.4 17.28H241.28c-15.36 0-28.8-5.76-38.4-17.28-9.6-9.6-15.36-24.96-15.36-38.4V323.84c0-30.72 24.96-55.68 55.68-55.68h264.96c15.36 0 28.8-13.44 28.8-30.72 0-17.28-13.44-30.72-28.8-30.72h-297.6c-48 0-88.32 40.32-88.32 88.32v489.6c0 48 38.4 88.32 88.32 88.32h602.88c48 0 88.32-38.4 88.32-88.32V540.8l-3.84-5.76z"  /><path fill="#666" d="M932.48 341.12L752 158.72l-5.76-5.76-5.76-3.84-1.92 1.92c-3.84-1.92-7.68-1.92-11.52-1.92-11.52 0-23.04 5.76-28.8 15.36-5.76 9.6-5.76 19.2-1.92 28.8l-1.92 1.92 119.04 119.04h-115.2c-211.2 26.88-263.04 157.44-278.4 360.96 0 17.28 15.36 32.64 32.64 32.64 13.44 0 26.88-9.6 30.72-24.96l1.92-7.68c15.36-186.24 51.84-278.4 215.04-295.68h113.28L704 492.8l-5.76 7.68c-1.92 3.84-3.84 9.6-3.84 15.36 0 17.28 15.36 32.64 32.64 32.64 5.76 0 11.52-1.92 17.28-3.84l182.4-182.4c3.84-1.92 5.76-5.76 5.76-11.52 1.92-3.84 1.92-5.76 0-9.6z"  /></svg>