<?xml version="1.0" standalone="no"?><!DOCTYPE svg PUBLIC "-//W3C//DTD SVG 1.1//EN" "http://www.w3.org/Graphics/SVG/1.1/DTD/svg11.dtd"><svg t="1514894594043" class="icon" style="" viewBox="0 0 1024 1024" version="1.1" xmlns="http://www.w3.org/2000/svg" p-id="1351" xmlns:xlink="http://www.w3.org/1999/xlink" width="200" height="200"><defs><style type="text/css"></style></defs><path d="M990.549333 360.903111c0-3.18577801-1.592889-4.551111-1.592889-7.73688899L910.22222199 151.096889a100.579556 100.579556 0 0 0-98.75911099-68.26666701H256.455111a94.890667 94.890667 0 0 0-95.57333301 65.08088901l-86.243556 206.620445c0 1.592889-1.592889 3.18577801-1.59288899 4.551111a193.64977799 193.64977799 0 0 0-9.329777 58.481777 189.55377799 189.55377799 0 0 0 98.759111 168.163556 176.583111 176.583111 0 0 0 87.836444 21.845333 182.044444 182.044444 0 0 0 141.76711099-68.266666 191.60177799 191.60177799 0 0 0 140.40177801 68.266666 179.08622199 179.08622199 0 0 0 140.40177801-68.266666 182.044444 182.044444 0 0 0 141.76711099 68.266666 187.050667 187.050667 0 0 0 89.42933301-21.617777A190.464 190.464 0 0 0 1001.244444 419.384889a245.987556 245.987556 0 0 0-10.695111-58.481778zM871.765333 523.37777799a107.861333 107.861333 0 0 1-57.116444 12.288 116.508444 116.508444 0 0 1-100.124445-57.11644499 53.703111 53.703111 0 0 0-9.329777-13.880889 45.511111 45.511111 0 0 0-64.853334 0 53.475556 53.475556 0 0 0-9.329777 13.880889 115.82577801 115.82577801 0 0 1-98.759112 57.11644499A118.328889 118.328889 0 0 1 432.355556 479.459556a54.15822201 54.15822201 0 0 0-7.736889-12.288 45.511111 45.511111 0 0 0-64.853334-1.592889 57.799111 57.799111 0 0 0-9.329777 15.473777 116.508444 116.508444 0 0 1-100.124445 57.116445 122.88 122.88 0 0 1-55.523555-12.288 123.562667 123.562667 0 0 1-57.116445-146.545778c0-1.592889 0-1.592889 1.592889-3.185778l83.285333-201.841777a29.354667 29.354667 0 0 1 32.31288901-21.61777801h555.235556a34.588444 34.588444 0 0 1 35.49866599 21.61777801l78.734223 200.476444a5.688889 5.688889 0 0 0 1.592889 4.551111 114.915556 114.915556 0 0 1 7.05422201 40.049778A116.736 116.736 0 0 1 871.765333 523.37777799z m24.576 111.04711101a34.133333 34.133333 0 0 0-33.905777 33.905778v188.188444a20.252444 20.252444 0 0 1-18.432 20.024889H208.668444a18.659556 18.659556 0 0 1-18.432-18.432v-184.32a34.133333 34.133333 0 0 0-33.905777-33.90577799 34.133333 34.133333 0 0 0-33.905778 33.90577799v185.002667a86.471111 86.471111 0 0 0 86.243555 87.836444h635.335112a87.608889 87.608889 0 0 0 86.243555-87.836444v-187.96088899a34.588444 34.588444 0 0 0-33.905778-35.49866701zM796.444444 394.808889H256.455111a33.90577799 33.90577799 0 1 1 0-68.26666699H796.444444a34.133333 34.133333 0 0 1 33.90577799 33.90577799A35.271111 35.271111 0 0 1 796.444444 394.808889z m0 0" fill="#626262" p-id="1352"></path></svg>