<?xml version="1.0" standalone="no"?><!DOCTYPE svg PUBLIC "-//W3C//DTD SVG 1.1//EN" "http://www.w3.org/Graphics/SVG/1.1/DTD/svg11.dtd"><svg t="1514895064788" class="icon" style="" viewBox="0 0 1024 1024" version="1.1" xmlns="http://www.w3.org/2000/svg" p-id="1226" xmlns:xlink="http://www.w3.org/1999/xlink" width="200" height="200"><defs><style type="text/css"></style></defs><path d="M960.63999969 370.34666656c0-2.98666688-1.49333344-4.26666656-1.49333344-7.25333343L885.33333312 173.65333344a94.29333375 94.29333375 0 0 0-92.58666656-64.00000032H272.42666656a88.96000031 88.96000031 0 0 0-89.59999969 61.01333344l-80.85333375 193.70666719c0 1.49333344-1.49333344 2.98666688-1.49333343 4.26666656a181.54666687 181.54666687 0 0 0-8.74666594 54.82666594 177.70666687 177.70666687 0 0 0 92.58666656 157.65333375 165.54666656 165.54666656 0 0 0 82.34666625 20.47999969 170.66666625 170.66666625 0 0 0 132.90666656-63.99999938 179.62666687 179.62666687 0 0 0 131.62666688 63.99999938 167.89333312 167.89333312 0 0 0 131.62666688-63.99999938 170.66666625 170.66666625 0 0 0 132.90666656 63.99999938 175.36000031 175.36000031 0 0 0 83.83999969-20.26666594A178.56 178.56 0 0 0 970.66666625 425.17333344a230.61333375 230.61333375 0 0 0-10.02666656-54.82666688zM849.27999969 522.66666687a101.11999969 101.11999969 0 0 1-53.54666625 11.52 109.22666625 109.22666625 0 0 1-93.86666719-53.54666718 50.34666656 50.34666656 0 0 0-8.74666594-13.01333344 42.66666656 42.66666656 0 0 0-60.80000062 0 50.13333375 50.13333375 0 0 0-8.74666594 13.01333344 108.58666688 108.58666688 0 0 1-92.5866675 53.54666718A110.93333344 110.93333344 0 0 1 437.33333375 481.49333375a50.77333313 50.77333313 0 0 0-7.25333344-11.52 42.66666656 42.66666656 0 0 0-60.80000062-1.49333344 54.18666656 54.18666656 0 0 0-8.74666594 14.50666594 109.22666625 109.22666625 0 0 1-93.86666719 53.54666719 115.2 115.2 0 0 1-52.05333281-11.52 115.84000031 115.84000031 0 0 1-53.54666719-137.38666688c0-1.49333344 0-1.49333344 1.49333344-2.98666687l78.07999969-189.22666594a27.52000031 27.52000031 0 0 1 30.29333344-20.26666688h520.53333375a32.42666625 32.42666625 0 0 1 33.27999937 20.26666688l73.81333406 187.94666625a5.33333344 5.33333344 0 0 0 1.49333344 4.26666656 107.73333375 107.73333375 0 0 1 6.61333313 37.54666688A109.44 109.44 0 0 1 849.27999969 522.66666687z m23.04 104.10666657a31.99999969 31.99999969 0 0 0-31.78666594 31.78666687v176.42666625a18.98666625 18.98666625 0 0 1-17.28 18.77333344H227.62666625a17.49333375 17.49333375 0 0 1-17.28-17.28v-172.8a31.99999969 31.99999969 0 0 0-31.78666594-31.78666687 31.99999969 31.99999969 0 0 0-31.78666687 31.78666687v173.44000031a81.06666656 81.06666656 0 0 0 80.85333281 82.34666625h595.6266675a82.13333344 82.13333344 0 0 0 80.85333281-82.34666625v-176.21333343a32.42666625 32.42666625 0 0 0-31.78666687-33.28000032zM778.66666625 402.13333344H272.42666656a31.78666687 31.78666687 0 1 1 0-64.00000031H778.66666625a31.99999969 31.99999969 0 0 1 31.78666687 31.78666687A33.06666656 33.06666656 0 0 1 778.66666625 402.13333344z m0 0" fill="#626262" p-id="1227"></path></svg>