<?xml version="1.0" standalone="no"?><!DOCTYPE svg PUBLIC "-//W3C//DTD SVG 1.1//EN" "http://www.w3.org/Graphics/SVG/1.1/DTD/svg11.dtd"><svg t="1514891006011" class="icon" style="" viewBox="0 0 1024 1024" version="1.1" xmlns="http://www.w3.org/2000/svg" p-id="2010" xmlns:xlink="http://www.w3.org/1999/xlink" width="200" height="200"><defs><style type="text/css"></style></defs><path fill="#faa603" d="M877.568 402.944l-320-320c-12.288-12.288-28.672-18.944-45.056-18.944-16.384 0-32.768 6.144-45.568 18.944L146.944 402.944c-40.448 40.448-11.776 109.056 45.568 109.056h128v127.488c0 35.328 28.672 64 64 64h256c35.328 0 64-28.672 64-64V512h128c56.832 0 84.992-68.608 45.056-109.056zM671.232 768H351.232c-17.408 0-31.744 14.336-31.744 31.744s14.336 31.744 31.744 31.744h320.512c17.408 0 31.744-14.336 31.744-31.744 0-17.408-14.336-31.744-32.256-31.744zM671.232 894.464H351.232c-17.408 0-31.744 14.336-31.744 31.744 0 17.408 14.336 31.744 31.744 31.744h320.512c17.408 0 31.744-14.336 31.744-31.744 0-17.408-14.336-31.744-32.256-31.744z" p-id="2011"></path></svg>