<?xml version="1.0" standalone="no"?><!DOCTYPE svg PUBLIC "-//W3C//DTD SVG 1.1//EN" "http://www.w3.org/Graphics/SVG/1.1/DTD/svg11.dtd"><svg class="icon" width="200px" height="200.00px" viewBox="0 0 1024 1024" version="1.1" xmlns="http://www.w3.org/2000/svg"><path fill="#fc6506" d="M899.672 830.46c0 11.959-1.838 23.204-5.598 33.59-3.734 10.432-9.033 19.581-15.923 27.481-6.913 7.914-14.927 14.112-24.079 18.486-9.169 4.434-19.244 6.619-30.175 6.619h-625.39c-10.941 0-21.224-2.183-31.001-6.619-9.748-4.439-18.372-10.63-25.879-18.486s-13.325-17.056-17.675-27.481c-4.281-10.432-6.477-21.636-6.477-33.59v-473.126c0-24.041 7.612-44.413 22.824-61.166 15.235-16.732 33.743-25.122 55.608-25.122h625.39c21.833 0 40.321 8.389 55.606 25.122 15.235 16.741 22.824 37.106 22.824 61.166v128.946h-195.535c-21.816 0-40.321 8.218-55.606 24.646-15.235 16.472-22.824 36.708-22.824 60.671 0.564 16.445 3.703 31.001 9.474 43.63 4.571 10.735 12.195 20.553 22.869 29.356 10.63 8.871 25.969 13.297 46.066 13.297h195.535v172.533h-0.002zM773.185 227.449h-422.097c33.475-17.705 65.109-34.753 94.818-51.226 26.020-13.897 51.748-27.804 77.166-41.693 25.402-13.886 45.216-24.616 59.525-32.251 21.707-12.022 41.043-17.518 58.122-16.599 17.056 0.943 31.453 3.949 43.238 9.017 13.657 6.956 25.402 16.137 35.305 27.481l53.94 105.273zM646.802 571.587c0-11.993 3.99-22.1 12.068-30.303 8.059-8.226 17.976-12.351 29.739-12.351s21.703 4.054 29.728 12.351c8.059 8.218 12.095 18.337 12.095 30.303 0 12.022-3.99 22.283-12.095 30.829-8.032 8.492-17.963 12.756-29.728 12.756s-21.703-4.27-29.739-12.756c-8.032-8.566-12.068-18.843-12.068-30.829v0 0zM646.802 571.587z" /></svg>