<?xml version="1.0" standalone="no"?><!DOCTYPE svg PUBLIC "-//W3C//DTD SVG 1.1//EN" "http://www.w3.org/Graphics/SVG/1.1/DTD/svg11.dtd"><svg t="1514797323156" class="icon" style="color:#1ecd16" viewBox="0 0 1024 1024" version="1.1" xmlns="http://www.w3.org/2000/svg" p-id="1529" xmlns:xlink="http://www.w3.org/1999/xlink" width="200" height="200"><defs><style type="text/css"></style></defs><path d="M512 64c-247.04 0-448 172.25728-448 384 0 182.97344 149.34528 339.16928 357.08928 375.74656l64.896 90.84416A31.8976 31.8976 0 0 0 512 928c10.3424 0 20.03968-4.99712 26.05056-13.40928l64.896-90.88c207.70816-36.54144 357.05344-192.70144 357.05344-375.71072 0-211.74272-200.96-384-448-384zM288.03072 512c-35.29728 0-64-28.70272-64-64S252.73344 384 288.03072 384s64 28.70272 64 64-28.70272 64-64 64z m224 0c-35.29728 0-64-28.70272-64-64s28.70272-64 64-64 64 28.70272 64 64-28.70272 64-64 64z m224 0c-35.29728 0-64-28.70272-64-64s28.70272-64 64-64c35.3024 0 64 28.70272 64 64s-28.70272 64-64 64z" p-id="1530"  fill="#1ecd16"></path></svg>