<?xml version="1.0" standalone="no"?><!DOCTYPE svg PUBLIC "-//W3C//DTD SVG 1.1//EN" "http://www.w3.org/Graphics/SVG/1.1/DTD/svg11.dtd"><svg t="1514864131678" class="icon" style="" viewBox="0 0 1024 1024" version="1.1" xmlns="http://www.w3.org/2000/svg" p-id="2148" xmlns:xlink="http://www.w3.org/1999/xlink" width="200" height="200"><defs><style type="text/css"></style></defs><path fill="#fccb06" d="M483.157091 85.936231c-6.27082 0-12.500709 0.132006-18.678408 0.356111-12.903891 0.463558-22.916942 10.955516-22.428825 23.3805 0.5137 12.45466 11.345396 22.152533 24.204262 21.685905v-0.033769c5.630231-0.195451 11.248182-0.335644 16.898878-0.335645 236.06753 0.454348 427.027723 185.010691 427.452396 413.240719 0 142.662187-74.705446 268.313955-188.484816 342.594729-10.683317 6.980995-13.452383 21.00643-6.253424 31.337729 4.487198 6.441713 11.846816 9.897418 19.349697 9.897417 4.484128 0 9.006118-1.243317 13.006222-3.825118 126.060067-82.310657 209.015408-221.86404 209.035873-380.003734-0.00921-253.109672-212.233706-458.294844-474.101855-458.294844z" p-id="2149"></path><path fill="#fccb06" d="M504.379439 525.250792c0.817622 0 1.74883-0.073678 2.769066-0.221034l0.616031-0.044002H612.57565c3.715625 0 4.848425-1.130753 4.848424-4.840239V409.810596c0-1.289366 0-3.662413-5.304819-4.849448h-106.198717c-2.157129 0-4.840238 0-4.840238 6.687306v108.86136l-0.061399 0.359181c-0.350994 2.079358-0.116657 3.244904 0.221034 3.643993 0.301875 0.356111 1.284249 0.737804 3.139504 0.737804z" p-id="2150"></path><path fill="#fccb06" d="M468.910623 160.594605c-222.11475 0-402.170592 174.045965-402.170593 388.742768s180.050726 388.725372 402.161383 388.725372c222.11475 0 402.178779-174.037778 402.178779-388.725372 0.001023-214.691687-180.054819-388.742768-402.169569-388.742768zM393.95856 612.861152a369.232412 369.232412 0 0 0-6.891967-8.824993v138.80944l-0.01842 0.198521c-1.000793 10.881838-6.973832 24.223704-29.735231 26.005281l-0.327458 0.024559-0.326435-0.023536c-24.612561-1.783623-29.779234-15.34243-29.779234-26.40437v-99.207489c-5.460362 13.995759-11.425214 25.883507-17.775851 35.412534l-0.103354 0.149403c-7.588839 10.42135-16.746406 15.70468-27.218922 15.70468-4.677533 0-9.642614-1.081635-14.756075-3.215228l-0.40523-0.194428c-10.970866-5.974062-21.454638-17.907858-9.098215-40.820708l0.135076-0.231267c26.965142-43.376926 48.558949-94.322226 64.220651-151.501506h-42.141796c-12.047384 0-26.40744-5.219885-26.40744-30.089296l0.01228-0.327458c1.363044-18.060331 11.646248-28.350698 29.740348-29.75672l0.336668-0.013303h43.459814V400.494417c-4.583388 0.883113-10.334369 1.7519-17.187451 2.598174l-0.533143 0.032746h-18.121729c-2.87856 0.353041-5.627161 0.531096-8.17724 0.531096-21.265326 0-27.764344-12.269441-29.472242-22.562878l-0.058328-0.353041v-0.359181c0-19.172665 10.744715-31.456433 31.070646-35.519981l0.422625-0.084934h14.902409c43.606147-4.834098 76.778664-9.748015 98.595552-14.60565l0.332574-0.060375a50.807153 50.807153 0 0 1 7.126305-0.529049c15.304568 0 25.935696 8.221242 30.745234 23.775496l0.144287 0.468674 0.036839 0.489141c1.363044 18.088984-8.05956 29.838585-27.254738 33.983999a4941.757456 4941.757456 0 0 1-14.654768 3.662412l-0.515746 0.127914h-7.214309v46.467311l29.149901 0.018419c8.227382 0.756223 17.85874 4.361331 22.838147 15.905249V387.93845c-1.336438-14.948457 1.359974-26.225291 8.014534-33.516348 6.414083-7.028067 16.328897-10.276041 29.533641-9.645684h156.112523c16.811898-0.674359 29.287023 3.136433 37.123503 11.329023 6.970762 7.28901 10.202363 17.963117 9.604752 31.729655V545.783431c0.62524 13.740956-2.297322 24.102954-8.685823 30.797423-5.643534 5.913687-13.881149 8.911974-24.482601 8.911974-2.009773 0-4.139274-0.10847-6.332219-0.321318H472.945519a53.656037 53.656037 0 0 1-3.024893 0.086981h-0.002047c-9.623171 0-17.166985-2.803859-22.422685-8.330736-6.294356-6.618744-9.134031-17.099447-8.444323-31.151487v-62.150502c-5.03876 12.142551-14.851243 15.117302-23.235191 15.117302h-28.752857v7.085372c3.372817 4.507664 6.742565 9.006118 10.120498 13.493316 24.861224 31.094182 38.708604 48.555879 42.333154 53.378721l0.353041 0.554632c9.546424 17.758456 8.057513 33.092699-4.427846 45.583175l-0.35918 0.320294c-5.933129 4.748141-11.95017 7.15598-17.8833 7.155981-8.131191 0-15.915481-4.480035-23.138999-13.316284l-0.102331-0.137123z m145.219429 27.028587c-22.116717 40.543392-50.79078 79.81993-85.241406 116.759237l-0.401136 0.378623c-8.518001 7.080256-17.273409 10.66899-26.019607 10.668991h-0.001023c-7.897877 0-15.805988-2.927679-23.503297-8.701173l-0.339737-0.255826-0.28448-0.316202c-8.812713-9.803273-15.300474-25.497721 3.842515-44.603871 25.299199-25.299199 50.421366-60.237943 74.665537-103.841019l0.097214-0.164753c7.523347-12.228509 16.994046-18.428721 28.149107-18.428721 5.03262 0 10.416234 1.305739 15.996322 3.879354l0.463558 0.248663c17.893532 11.050684 22.243607 26.396183 12.576433 44.376697z m141.794424 113.865327l-0.343831 0.200568-0.373507 0.1361c-4.053316 1.463328-7.957229 2.204202-11.600199 2.204201h-0.002047c-10.331299-0.001023-18.708084-5.716188-24.898063-16.984836-26.693965-43.665499-50.101071-78.778204-69.573565-104.361883-5.520737-7.569396-7.67582-14.84715-6.455015-21.703301 1.282203-7.206122 6.281053-13.759375 14.856359-19.482726l0.172939-0.109494c13.731746-8.257058 28.717042-6.285147 43.6041 5.879917l0.379647 0.310062 0.299829 0.38681c25.710568 33.040511 49.373501 71.021543 70.332858 112.889093l0.239453 0.576121c5.516644 16.621563-0.236384 30.474059-16.638958 40.059368z" p-id="2151"></path></svg>