<?xml version="1.0" standalone="no"?><!DOCTYPE svg PUBLIC "-//W3C//DTD SVG 1.1//EN" "http://www.w3.org/Graphics/SVG/1.1/DTD/svg11.dtd"><svg t="1517898021666" class="icon" style="" viewBox="0 0 1024 1024" version="1.1" xmlns="http://www.w3.org/2000/svg" p-id="2332" xmlns:xlink="http://www.w3.org/1999/xlink" width="200" height="200"><defs><style type="text/css"></style></defs><path fill="#7ecef4" d="M957.5 386.9q4.5 31.5-9.9 60.3t-46.8 46.8l0 299.7q0 26.1-9 47.25t-24.75 36.45-36 23.85-42.75 8.55l-505.8 0q-24.3 0-45-8.55t-36.45-23.85-24.3-36.45-8.55-47.25l0-299.7q-31.5-18.9-46.8-47.25t-9.9-59.85l45-216.9q4.5-21.6 21.15-36.45t39.15-14.85l180 0 279 0 173.7 0q27 0 44.55 14.85t22.05 36.45zM843.2 520.1q-12.6 2.7-26.1 2.7-28.8 0-54-10.35t-44.55-28.35-30.6-42.3-12.15-52.2q-0.9 27.9-11.7 52.2t-29.7 42.3-44.1 28.35-54 10.35-54.45-10.8-44.55-29.25-29.7-43.2-10.8-52.65q0 27.9-11.7 52.65t-31.5 43.2-46.35 29.25-55.35 10.8q-13.5 0-27-2.7l0 104.4q0 10.8 4.95 21.6t13.05 18.9 18 13.05 19.8 4.95l507.6 0q9 0 18.9-4.5t18-11.7 13.05-17.55 4.95-21.15l0-108z" p-id="2333"></path></svg>