<?xml version="1.0" standalone="no"?><!DOCTYPE svg PUBLIC "-//W3C//DTD SVG 1.1//EN" "http://www.w3.org/Graphics/SVG/1.1/DTD/svg11.dtd"><svg t="1515465987405" class="icon" style="" viewBox="0 0 1024 1024" version="1.1" xmlns="http://www.w3.org/2000/svg" p-id="4769" xmlns:xlink="http://www.w3.org/1999/xlink" width="200" height="200"><defs><style type="text/css"></style></defs><path d="M511.28853333 34.13333333c-263.91893333 0-477.86666667 213.94773333-477.86666666 477.86666667s213.94773333 477.86666667 477.86666666 477.86666667 477.86666667-213.94773333 477.86666667-477.86666667-213.94773333-477.86666667-477.86666667-477.86666667z m0 737.32373334c-23.62133333 0-42.77013333-19.1488-42.77013333-42.77013334s19.1488-42.77013333 42.77013333-42.77013333 42.77013333 19.1488 42.77013334 42.77013333-19.1488 42.77013333-42.77013334 42.77013334z m56.8544-466.0992l-20.75733333 294.8192c-1.0144 16.86506667-16.86613333 30.0832-36.07786667 30.0832-19.21173333 0-35.06346667-13.21706667-36.07786666-30.0832l-20.79466667-295.4464c-1.04106667-17.30453333 8.272-33.8304 24.5632-43.58613334 18.82666667-11.27466667 43.52106667-11.4816 62.58986667-0.52693333l1.09226666 0.6272c16.82346667 9.66506667 26.52373333 26.4704 25.4624 44.11306667z" fill="#FF3C4B" p-id="4770"></path></svg>