<?xml version="1.0" standalone="no"?><!DOCTYPE svg PUBLIC "-//W3C//DTD SVG 1.1//EN" "http://www.w3.org/Graphics/SVG/1.1/DTD/svg11.dtd"><svg t="1515579250116" class="icon" style="" viewBox="0 0 1024 1024" version="1.1" xmlns="http://www.w3.org/2000/svg" p-id="6142" xmlns:xlink="http://www.w3.org/1999/xlink" width="200" height="200"><defs><style type="text/css"></style></defs><path d="M508.657783 1023.985704c-68.309691 0-134.595467-13.387249-197.017219-39.791072-60.275299-25.495-114.397161-61.982658-160.863476-108.449995-46.467337-46.467337-82.954995-100.589198-108.448974-160.862455C15.925313 652.459409 2.538063 586.172612 2.538063 517.864963c0-68.306628 13.387249-134.592403 39.790051-197.017219 25.492958-60.273257 61.980616-114.39614 108.448974-160.863476 46.468358-46.468358 100.59022-82.956016 160.863476-108.449995 62.422773-26.40178 128.708549-39.789029 197.017219-39.789029 68.306628 0 134.592403 13.387249 197.017219 39.789029 60.273257 25.493979 114.39614 61.981637 160.863476 108.449995 46.466316 46.464273 82.953974 100.586135 108.449995 160.863476 26.402801 62.422773 39.79005 128.708549 39.790051 197.017219s-13.386228 134.594446-39.790051 197.01824c-25.496022 60.27632-61.98368 114.399203-108.451016 160.863477-46.465294 46.466316-100.587156 82.953974-160.862455 108.448974-62.420731 26.402801-128.707528 39.79005-197.017219 39.79005z m0-930.547605c-234.030768 0-424.427885 190.397117-424.427885 424.427885 0 234.031789 190.398138 424.429927 424.427885 424.429928 234.030768 0 424.427885-190.398138 424.427885-424.429928 0-234.030768-190.397117-424.427885-424.427885-424.427885z" fill="#FFFFFF" p-id="6143"></path><path d="M508.657783 73.015141c-245.290966 0-444.850844 199.558856-444.850844 444.850843S263.366816 962.717849 508.657783 962.717849s444.850844-199.559877 444.850843-444.851865S753.948749 73.015141 508.657783 73.015141z" fill="#F5C607" p-id="6144"></path><path d="M284.423908 779.00823l18.285696 28.823943 42.224467 20.881454 16.236252-109.608998z" fill="#F5A107" p-id="6145"></path><path d="M363.141139 717.56678l-1.970816 1.537849-16.236252 109.608998 31.458505 15.557189 22.311061-150.621363z" fill="#F5A107" p-id="6146"></path><path d="M398.703637 693.649453l-22.311061 150.621363 31.458504 15.55821 28.352172-191.397842z" fill="#F4A207" p-id="6147"></path><path d="M436.203252 668.431184l-28.352172 191.397842 31.459525 15.557188 34.391242-232.174321z" fill="#F3A207" p-id="6148"></path><path d="M473.701847 643.211893l-34.391242 232.174321 31.458505 15.557189 40.431331-272.9508z" fill="#F2A307" p-id="6149"></path><path d="M511.200441 617.992603l-40.431331 272.9508 31.458504 15.557189 46.471422-313.726259z" fill="#F1A307" p-id="6150"></path><path d="M548.699036 592.774333l-46.471422 313.726259 31.458505 15.557189 52.511511-354.502738z" fill="#F0A407" p-id="6151"></path><path d="M586.19763 567.555043l-52.511511 354.502738 31.458504 15.55821 58.551601-395.279218z" fill="#EFA407" p-id="6152"></path><path d="M623.696224 542.336773l-58.551601 395.279218 31.458504 15.557188 64.591692-436.055696z" fill="#EEA507" p-id="6153"></path><path d="M661.194819 517.117483l-64.591692 436.055696 1.163088 0.574907a440.806077 440.806077 0 0 0 33.745876-8.311123l67.181322-453.53775-37.498594 25.21827z" fill="#EDA607" p-id="6154"></path><path d="M698.693413 491.898192l-67.181322 453.537749a441.143055 441.143055 0 0 0 35.522673-11.877992l69.157244-466.879047-37.498595 25.21929z" fill="#ECA607" p-id="6155"></path><path d="M736.192008 466.679923l-69.157244 466.879047a442.304101 442.304101 0 0 0 36.083283-15.663388l70.572555-476.43495-37.498594 25.219291z" fill="#EBA707" p-id="6156"></path><path d="M773.690602 441.460632l-70.572555 476.43495a444.225901 444.225901 0 0 0 36.742945-20.119678l71.328205-481.534562-37.498595 25.21929z" fill="#EAA707" p-id="6157"></path><path d="M811.189197 416.242363L739.860992 897.775904a446.53778 446.53778 0 0 0 37.561906-25.650215l71.263872-481.103638-37.497573 25.220312z" fill="#E9A807" p-id="6158"></path><path d="M849.934613 390.18471l-1.246822 0.838363-71.263872 481.103637a448.430988 448.430988 0 0 0 38.658618-33.052516l64.124006-432.90035-30.27193-15.989134z" fill="#E8A907" p-id="6159"></path><path d="M880.206543 406.173844l-64.124006 432.90035a448.763882 448.763882 0 0 0 40.290413-44.064576l55.147095-372.29624-31.313502-16.539534z" fill="#E6A906" p-id="6160"></path><path d="M911.520045 422.713378l-55.147095 372.29624a446.486723 446.486723 0 0 0 43.464141-65.491323l42.996455-290.265384-31.313501-16.539533z" fill="#E5AA06" p-id="6161"></path><path d="M942.832525 439.252911L899.837091 729.518295c34.21254-62.977257 53.670514-135.082554 53.670514-211.652311 0-26.062759-2.260822-51.605753-6.582319-76.451303l-4.092761-2.16177z" fill="#E4AA06" p-id="6162"></path><path d="M167.379932 389.950867l2.189341-6.176924c5.629589-16.809116 20.327992-28.067272 38.2328-29.319199 16.34143-1.173299 32.68184 8.365244 40.343512 23.37714 7.81893 15.324367 5.63061 33.384389-5.707195 46.832907-1.328513 1.484749-2.658048 2.970519-4.142798 4.690133 31.664776 19.389557 63.173317 38.546292 94.525622 57.85722 11.88412 7.349202 23.845847 14.698403 35.729967 21.812741 6.801866 3.988604 12.040355 2.815305 15.714445-3.831347A264110.239748 264110.239748 0 0 0 492.708473 307.385951c-15.714446-7.975165-25.879973-20.171756-26.817387-38.2328-0.625964-12.666319 3.830326-23.534396 12.821534-32.368347 17.826179-17.357473 47.067772-15.715467 62.70461 3.517855 17.983436 22.048626 11.49302 47.84895-17.04398 67.239528 9.3047 17.04398 18.687007 34.166589 28.146921 51.21159 26.192445 47.693735 52.227632 95.229193 78.419056 142.921907 6.020688 11.024313 9.852035 12.040355 20.641484 5.63061 40.499748-24.706674 80.921889-49.569584 121.421637-74.354887 1.875849-1.173299 3.67409-2.345577 5.863432-3.674091-8.365244-8.366265-13.682361-17.826179-14.307304-29.476456-1.172278-21.812741 13.838597-40.890848 34.87016-44.487331 21.892391-3.831347 42.220382 8.678736 48.709777 29.867556 0.468707 1.642006 1.173299 3.361619 1.798242 5.003625v14.698403c-6.880495 22.048626-21.031563 34.871181-45.348159 35.027417-0.859807 2.501812-1.798242 5.003625-2.501812 7.505437-23.690632 81.23436-47.380243 162.624956-71.070875 243.858296-3.048127 10.634235-6.801866 13.36989-17.513708 13.36989H304.359779c-11.49302 0-15.011896-2.658048-18.138651-13.36989-19.312971-65.909993-38.389035-132.054851-57.700985-197.963823-5.159861-17.826179-10.476978-35.652359-15.715466-53.557167-18.138651 0-31.821012-7.192966-40.343513-22.829804-2.033106-3.830326-3.361619-8.13038-5.003625-12.196591-0.077607-5.081232-0.077607-9.928621-0.077607-14.776011m0 0zM508.500526 747.178028h191.162978c17.04398 0 30.648734 12.040355 32.524583 28.22555 1.87687 16.340409-8.833951 31.196069-25.331617 34.870159-2.345577 0.625964-4.84841 0.703571-7.192966 0.703571H317.181313c-14.542168 0-26.817387-8.678736-31.038813-21.812741-4.378682-13.135026-0.313492-27.990686 11.336784-35.496123 6.019667-3.830326 13.994832-6.489395 21.031563-6.489395 63.408181-0.313492 126.737734-0.001021 189.989679-0.001021m0 0z" fill="#FFFFFF" p-id="6163"></path></svg>